ffmpeg started on 2026-01-20 at 13:19:19
Report written to "D:\Convert\FFMetrics\reports\psnr_report-6.txt"
Log level: 32
Command line:
ffmpeg -hide_banner -nostdin -r 24000/1001 -i "F:\\Convert\\files\\[DC] Make Heroine ga Oosugiru - 07_Telegram_HEVC(191).mkv" -r 24000/1001 -i "F:\\Convert\\files\\[DC] Make Heroine ga Oosugiru - 07_Telegram.mp4" -lavfi "[0:v]settb=AVTB,setpts=PTS-STARTPTS,format=pix_fmts=yuv420p10le,fps=24000/1001,scale=1920:1080:flags=lanczos:param0=3:out_range=limited:out_color_matrix=bt709:out_chroma_loc=left,setsar=1/1,setdar=(1920/1080)*(1/1),colorspace=format=yuv420p10:range=tv:primaries=bt709:trc=bt709:space=bt709:fast=0[main];[1:v]settb=AVTB,setpts=PTS-STARTPTS,format=pix_fmts=yuv420p,fps=24000/1001,scale=1920:1080:flags=lanczos:param0=3:out_range=limited:out_color_matrix=bt709:out_chroma_loc=left,setsar=1.000,setdar=1.778,colorspace=format=yuv420p:range=tv:primaries=bt709:trc=bt709:space=bt709:fast=0[ref];[main][ref]psnr=eof_action=endall:stats_file='D\\:/Convert/FFMetrics/logs/psnr_logfile-6.txt'" -f null -
Input #0, matroska,webm, from 'F:\Convert\files\[DC] Make Heroine ga Oosugiru - 07_Telegram_HEVC(191).mkv':
  Metadata:
    COMPATIBLE_BRANDS: isomiso2avc1mp41
    MAJOR_BRAND     : isom
    MINOR_VERSION   : 512
    ENCODER         : Lavf61.7.100
  Duration: 00:24:06.79, start: -0.021000, bitrate: 971 kb/s
  Stream #0:0: Video: hevc (Main 10), yuv420p10le(tv, bt709, progressive), 1920x1080 [SAR 1:1 DAR 16:9], 23.98 fps, 23.98 tbr, 1k tbn (default)
      Metadata:
        HANDLER_NAME    : VideoHandler
        VENDOR_ID       : [0][0][0][0]
        ENCODER         : Lavc61.19.100 libx265
        BPS             : 774793
        DURATION        : 00:24:06.569708333
        NUMBER_OF_FRAMES: 34683
        NUMBER_OF_BYTES : 140099019
        _STATISTICS_WRITING_APP: mkvpropedit v94.0 ('Initiate') 64-bit
        _STATISTICS_WRITING_DATE_UTC: 2026-01-19 15:06:17
        _STATISTICS_TAGS: BPS DURATION NUMBER_OF_FRAMES NUMBER_OF_BYTES
  Stream #0:1: Audio: aac (LC), 48000 Hz, stereo, fltp (default)
      Metadata:
        HANDLER_NAME    : SoundHandler
        VENDOR_ID       : [0][0][0][0]
        ENCODER         : Lavc61.19.100 aac
        BPS             : 193194
        DURATION        : 00:24:06.784000000
        NUMBER_OF_FRAMES: 67819
        NUMBER_OF_BYTES : 34938755
        _STATISTICS_WRITING_APP: mkvpropedit v94.0 ('Initiate') 64-bit
        _STATISTICS_WRITING_DATE_UTC: 2026-01-19 15:06:17
        _STATISTICS_TAGS: BPS DURATION NUMBER_OF_FRAMES NUMBER_OF_BYTES
Input #1, mov,mp4,m4a,3gp,3g2,mj2, from 'F:\Convert\files\[DC] Make Heroine ga Oosugiru - 07_Telegram.mp4':
  Metadata:
    major_brand     : isom
    minor_version   : 512
    compatible_brands: isomiso2avc1mp41
    encoder         : Lavf60.16.100
  Duration: 00:24:06.74, start: 0.000000, bitrate: 3764 kb/s
  Stream #1:0[0x1](und): Video: h264 (High) (avc1 / 0x31637661), yuv420p(tv, bt709, progressive), 1920x1080 [SAR 1:1 DAR 16:9], 3616 kb/s, 23.98 fps, 23.98 tbr, 24k tbn (default)
      Metadata:
        handler_name    : VideoHandler
        vendor_id       : [0][0][0][0]
        encoder         : Lavc60.31.102 h264_qsv
  Stream #1:1[0x2](und): Audio: aac (HE-AACv2) (mp4a / 0x6134706D), 48000 Hz, stereo, fltp, 144 kb/s (default)
      Metadata:
        handler_name    : SoundHandler
        vendor_id       : [0][0][0][0]
Stream mapping:
  Stream #0:0 (hevc) -> settb:default
  Stream #1:0 (h264) -> settb:default
  psnr:default -> Stream #0:0 (wrapped_avframe)
  Stream #0:1 -> #0:1 (aac (native) -> pcm_s16le (native))
Output #0, null, to 'pipe:':
  Metadata:
    COMPATIBLE_BRANDS: isomiso2avc1mp41
    MAJOR_BRAND     : isom
    MINOR_VERSION   : 512
    encoder         : Lavf61.7.100
  Stream #0:0: Video: wrapped_avframe, yuv420p10le(tv, bt709, progressive), 1920x1080 [SAR 1:1 DAR 16:9], q=2-31, 200 kb/s, 23.98 fps, 23.98 tbn
      Metadata:
        encoder         : Lavc61.19.100 wrapped_avframe
  Stream #0:1: Audio: pcm_s16le, 48000 Hz, stereo, s16, 1536 kb/s (default)
      Metadata:
        HANDLER_NAME    : SoundHandler
        VENDOR_ID       : [0][0][0][0]
        _STATISTICS_TAGS: BPS DURATION NUMBER_OF_FRAMES NUMBER_OF_BYTES
        BPS             : 193194
        DURATION        : 00:24:06.784000000
        NUMBER_OF_FRAMES: 67819
        NUMBER_OF_BYTES : 34938755
        _STATISTICS_WRITING_APP: mkvpropedit v94.0 ('Initiate') 64-bit
        _STATISTICS_WRITING_DATE_UTC: 2026-01-19 15:06:17
        encoder         : Lavc61.19.100 pcm_s16le
frame=  140 fps=0.0 q=-0.0 size=N/A time=00:00:05.83 bitrate=N/A speed=11.1x    frame=  340 fps=328 q=-0.0 size=N/A time=00:00:14.18 bitrate=N/A speed=13.7x    frame=  548 fps=354 q=-0.0 size=N/A time=00:00:22.85 bitrate=N/A speed=14.8x    frame=  747 fps=362 q=-0.0 size=N/A time=00:00:31.15 bitrate=N/A speed=15.1x    frame=  925 fps=357 q=-0.0 size=N/A time=00:00:38.58 bitrate=N/A speed=14.9x    frame= 1075 fps=345 q=-0.0 size=N/A time=00:00:44.83 bitrate=N/A speed=14.4x    frame= 1236 fps=341 q=-0.0 size=N/A time=00:00:51.55 bitrate=N/A speed=14.2x    frame= 1400 fps=338 q=-0.0 size=N/A time=00:00:58.39 bitrate=N/A speed=14.1x    frame= 1546 fps=332 q=-0.0 size=N/A time=00:01:04.48 bitrate=N/A speed=13.9x    frame= 1699 fps=328 q=-0.0 size=N/A time=00:01:10.86 bitrate=N/A speed=13.7x    frame= 1862 fps=327 q=-0.0 size=N/A time=00:01:17.66 bitrate=N/A speed=13.6x    frame= 2033 fps=328 q=-0.0 size=N/A time=00:01:24.79 bitrate=N/A speed=13.7x    frame= 2142 fps=318 q=-0.0 size=N/A time=00:01:29.33 bitrate=N/A speed=13.3x    frame= 2298 fps=317 q=-0.0 size=N/A time=00:01:35.84 bitrate=N/A speed=13.2x    frame= 2443 fps=315 q=-0.0 size=N/A time=00:01:41.89 bitrate=N/A speed=13.1x    frame= 2573 fps=311 q=-0.0 size=N/A time=00:01:47.31 bitrate=N/A speed=  13x    frame= 2746 fps=312 q=-0.0 size=N/A time=00:01:54.53 bitrate=N/A speed=  13x    frame= 2919 fps=314 q=-0.0 size=N/A time=00:02:01.74 bitrate=N/A speed=13.1x    frame= 3107 fps=317 q=-0.0 size=N/A time=00:02:09.58 bitrate=N/A speed=13.2x    frame= 3319 fps=321 q=-0.0 size=N/A time=00:02:18.42 bitrate=N/A speed=13.4x    frame= 3521 fps=324 q=-0.0 size=N/A time=00:02:26.85 bitrate=N/A speed=13.5x    frame= 3722 fps=327 q=-0.0 size=N/A time=00:02:35.23 bitrate=N/A speed=13.6x    frame= 3907 fps=329 q=-0.0 size=N/A time=00:02:42.95 bitrate=N/A speed=13.7x    frame= 4111 fps=331 q=-0.0 size=N/A time=00:02:51.46 bitrate=N/A speed=13.8x    frame= 4311 fps=334 q=-0.0 size=N/A time=00:02:59.80 bitrate=N/A speed=13.9x    frame= 4500 fps=335 q=-0.0 size=N/A time=00:03:07.68 bitrate=N/A speed=  14x    frame= 4694 fps=336 q=-0.0 size=N/A time=00:03:15.77 bitrate=N/A speed=  14x    frame= 4891 fps=338 q=-0.0 size=N/A time=00:03:23.99 bitrate=N/A speed=14.1x    frame= 5088 fps=340 q=-0.0 size=N/A time=00:03:32.21 bitrate=N/A speed=14.2x    frame= 5289 fps=341 q=-0.0 size=N/A time=00:03:40.59 bitrate=N/A speed=14.2x    frame= 5483 fps=342 q=-0.0 size=N/A time=00:03:48.68 bitrate=N/A speed=14.3x    frame= 5681 fps=344 q=-0.0 size=N/A time=00:03:56.94 bitrate=N/A speed=14.3x    frame= 5874 fps=345 q=-0.0 size=N/A time=00:04:04.99 bitrate=N/A speed=14.4x    frame= 6074 fps=346 q=-0.0 size=N/A time=00:04:13.33 bitrate=N/A speed=14.4x    frame= 6271 fps=347 q=-0.0 size=N/A time=00:04:21.55 bitrate=N/A speed=14.5x    frame= 6475 fps=348 q=-0.0 size=N/A time=00:04:30.06 bitrate=N/A speed=14.5x    frame= 6673 fps=349 q=-0.0 size=N/A time=00:04:38.31 bitrate=N/A speed=14.6x    frame= 6867 fps=350 q=-0.0 size=N/A time=00:04:46.41 bitrate=N/A speed=14.6x    frame= 7061 fps=351 q=-0.0 size=N/A time=00:04:54.50 bitrate=N/A speed=14.6x    frame= 7260 fps=351 q=-0.0 size=N/A time=00:05:02.80 bitrate=N/A speed=14.7x    frame= 7450 fps=352 q=-0.0 size=N/A time=00:05:10.72 bitrate=N/A speed=14.7x    frame= 7632 fps=352 q=-0.0 size=N/A time=00:05:18.31 bitrate=N/A speed=14.7x    frame= 7825 fps=352 q=-0.0 size=N/A time=00:05:26.36 bitrate=N/A speed=14.7x    frame= 8018 fps=353 q=-0.0 size=N/A time=00:05:34.41 bitrate=N/A speed=14.7x    frame= 8209 fps=353 q=-0.0 size=N/A time=00:05:42.38 bitrate=N/A speed=14.7x    frame= 8409 fps=354 q=-0.0 size=N/A time=00:05:50.72 bitrate=N/A speed=14.8x    frame= 8596 fps=354 q=-0.0 size=N/A time=00:05:58.52 bitrate=N/A speed=14.8x    frame= 8795 fps=355 q=-0.0 size=N/A time=00:06:06.82 bitrate=N/A speed=14.8x    frame= 8994 fps=356 q=-0.0 size=N/A time=00:06:15.12 bitrate=N/A speed=14.8x    frame= 9192 fps=356 q=-0.0 size=N/A time=00:06:23.38 bitrate=N/A speed=14.8x    frame= 9388 fps=356 q=-0.0 size=N/A time=00:06:31.55 bitrate=N/A speed=14.9x    frame= 9580 fps=357 q=-0.0 size=N/A time=00:06:39.56 bitrate=N/A speed=14.9x    frame= 9783 fps=358 q=-0.0 size=N/A time=00:06:48.03 bitrate=N/A speed=14.9x    frame= 9974 fps=358 q=-0.0 size=N/A time=00:06:55.99 bitrate=N/A speed=14.9x    frame=10168 fps=358 q=-0.0 size=N/A time=00:07:04.09 bitrate=N/A speed=14.9x    frame=10357 fps=358 q=-0.0 size=N/A time=00:07:11.97 bitrate=N/A speed=14.9x    frame=10557 fps=359 q=-0.0 size=N/A time=00:07:20.31 bitrate=N/A speed=  15x    frame=10749 fps=359 q=-0.0 size=N/A time=00:07:28.32 bitrate=N/A speed=  15x    frame=10939 fps=359 q=-0.0 size=N/A time=00:07:36.24 bitrate=N/A speed=  15x    frame=11132 fps=359 q=-0.0 size=N/A time=00:07:44.29 bitrate=N/A speed=  15x    frame=11316 fps=359 q=-0.0 size=N/A time=00:07:51.97 bitrate=N/A speed=  15x    frame=11519 fps=360 q=-0.0 size=N/A time=00:08:00.43 bitrate=N/A speed=  15x    frame=11713 fps=360 q=-0.0 size=N/A time=00:08:08.52 bitrate=N/A speed=  15x    frame=11909 fps=361 q=-0.0 size=N/A time=00:08:16.70 bitrate=N/A speed=  15x    frame=12115 fps=361 q=-0.0 size=N/A time=00:08:25.29 bitrate=N/A speed=15.1x    frame=12308 fps=361 q=-0.0 size=N/A time=00:08:33.34 bitrate=N/A speed=15.1x    frame=12507 fps=362 q=-0.0 size=N/A time=00:08:41.64 bitrate=N/A speed=15.1x    frame=12704 fps=362 q=-0.0 size=N/A time=00:08:49.86 bitrate=N/A speed=15.1x    frame=12900 fps=362 q=-0.0 size=N/A time=00:08:58.03 bitrate=N/A speed=15.1x    frame=13088 fps=362 q=-0.0 size=N/A time=00:09:05.87 bitrate=N/A speed=15.1x    frame=13288 fps=362 q=-0.0 size=N/A time=00:09:14.22 bitrate=N/A speed=15.1x    frame=13474 fps=362 q=-0.0 size=N/A time=00:09:21.97 bitrate=N/A speed=15.1x    frame=13666 fps=363 q=-0.0 size=N/A time=00:09:29.98 bitrate=N/A speed=15.1x    frame=13872 fps=363 q=-0.0 size=N/A time=00:09:38.57 bitrate=N/A speed=15.1x    frame=14063 fps=363 q=-0.0 size=N/A time=00:09:46.54 bitrate=N/A speed=15.1x    frame=14232 fps=363 q=-0.0 size=N/A time=00:09:53.59 bitrate=N/A speed=15.1x    frame=14434 fps=363 q=-0.0 size=N/A time=00:10:02.01 bitrate=N/A speed=15.1x    frame=14622 fps=363 q=-0.0 size=N/A time=00:10:09.85 bitrate=N/A speed=15.1x    frame=14817 fps=363 q=-0.0 size=N/A time=00:10:17.99 bitrate=N/A speed=15.2x    frame=15004 fps=363 q=-0.0 size=N/A time=00:10:25.79 bitrate=N/A speed=15.2x    frame=15165 fps=363 q=-0.0 size=N/A time=00:10:32.50 bitrate=N/A speed=15.1x    frame=15347 fps=363 q=-0.0 size=N/A time=00:10:40.09 bitrate=N/A speed=15.1x    frame=15520 fps=362 q=-0.0 size=N/A time=00:10:47.31 bitrate=N/A speed=15.1x    frame=15722 fps=363 q=-0.0 size=N/A time=00:10:55.73 bitrate=N/A speed=15.1x    frame=15922 fps=363 q=-0.0 size=N/A time=00:11:04.08 bitrate=N/A speed=15.1x    frame=16115 fps=363 q=-0.0 size=N/A time=00:11:12.12 bitrate=N/A speed=15.1x    frame=16320 fps=363 q=-0.0 size=N/A time=00:11:20.68 bitrate=N/A speed=15.2x    frame=16511 fps=363 q=-0.0 size=N/A time=00:11:28.64 bitrate=N/A speed=15.2x    frame=16705 fps=364 q=-0.0 size=N/A time=00:11:36.73 bitrate=N/A speed=15.2x    frame=16903 fps=364 q=-0.0 size=N/A time=00:11:44.99 bitrate=N/A speed=15.2x    frame=17107 fps=364 q=-0.0 size=N/A time=00:11:53.50 bitrate=N/A speed=15.2x    frame=17305 fps=364 q=-0.0 size=N/A time=00:12:01.76 bitrate=N/A speed=15.2x    frame=17496 fps=364 q=-0.0 size=N/A time=00:12:09.72 bitrate=N/A speed=15.2x    frame=17689 fps=364 q=-0.0 size=N/A time=00:12:17.77 bitrate=N/A speed=15.2x    frame=17884 fps=365 q=-0.0 size=N/A time=00:12:25.91 bitrate=N/A speed=15.2x    frame=18078 fps=365 q=-0.0 size=N/A time=00:12:34.00 bitrate=N/A speed=15.2x    frame=18265 fps=365 q=-0.0 size=N/A time=00:12:41.80 bitrate=N/A speed=15.2x    frame=18461 fps=365 q=-0.0 size=N/A time=00:12:49.97 bitrate=N/A speed=15.2x    frame=18656 fps=365 q=-0.0 size=N/A time=00:12:58.11 bitrate=N/A speed=15.2x    frame=18854 fps=365 q=-0.0 size=N/A time=00:13:06.36 bitrate=N/A speed=15.2x    frame=19048 fps=365 q=-0.0 size=N/A time=00:13:14.46 bitrate=N/A speed=15.2x    frame=19254 fps=366 q=-0.0 size=N/A time=00:13:23.05 bitrate=N/A speed=15.2x    frame=19453 fps=366 q=-0.0 size=N/A time=00:13:31.35 bitrate=N/A speed=15.3x    frame=19649 fps=366 q=-0.0 size=N/A time=00:13:39.52 bitrate=N/A speed=15.3x    frame=19838 fps=366 q=-0.0 size=N/A time=00:13:47.40 bitrate=N/A speed=15.3x    frame=20040 fps=366 q=-0.0 size=N/A time=00:13:55.83 bitrate=N/A speed=15.3x    frame=20237 fps=366 q=-0.0 size=N/A time=00:14:04.05 bitrate=N/A speed=15.3x    frame=20436 fps=367 q=-0.0 size=N/A time=00:14:12.35 bitrate=N/A speed=15.3x    frame=20615 fps=366 q=-0.0 size=N/A time=00:14:19.81 bitrate=N/A speed=15.3x    frame=20810 fps=367 q=-0.0 size=N/A time=00:14:27.95 bitrate=N/A speed=15.3x    frame=21015 fps=367 q=-0.0 size=N/A time=00:14:36.50 bitrate=N/A speed=15.3x    frame=21214 fps=367 q=-0.0 size=N/A time=00:14:44.80 bitrate=N/A speed=15.3x    frame=21410 fps=367 q=-0.0 size=N/A time=00:14:52.97 bitrate=N/A speed=15.3x    frame=21613 fps=367 q=-0.0 size=N/A time=00:15:01.44 bitrate=N/A speed=15.3x    frame=21815 fps=367 q=-0.0 size=N/A time=00:15:09.86 bitrate=N/A speed=15.3x    frame=22008 fps=368 q=-0.0 size=N/A time=00:15:17.91 bitrate=N/A speed=15.3x    frame=22206 fps=368 q=-0.0 size=N/A time=00:15:26.17 bitrate=N/A speed=15.3x    frame=22405 fps=368 q=-0.0 size=N/A time=00:15:34.47 bitrate=N/A speed=15.3x    frame=22608 fps=368 q=-0.0 size=N/A time=00:15:42.94 bitrate=N/A speed=15.4x    frame=22796 fps=368 q=-0.0 size=N/A time=00:15:50.78 bitrate=N/A speed=15.4x    frame=22993 fps=368 q=-0.0 size=N/A time=00:15:58.99 bitrate=N/A speed=15.4x    frame=23195 fps=368 q=-0.0 size=N/A time=00:16:07.42 bitrate=N/A speed=15.4x    frame=23387 fps=368 q=-0.0 size=N/A time=00:16:15.43 bitrate=N/A speed=15.4x    frame=23593 fps=369 q=-0.0 size=N/A time=00:16:24.02 bitrate=N/A speed=15.4x    frame=23792 fps=369 q=-0.0 size=N/A time=00:16:32.32 bitrate=N/A speed=15.4x    frame=23993 fps=369 q=-0.0 size=N/A time=00:16:40.70 bitrate=N/A speed=15.4x    frame=24181 fps=369 q=-0.0 size=N/A time=00:16:48.54 bitrate=N/A speed=15.4x    frame=24373 fps=369 q=-0.0 size=N/A time=00:16:56.55 bitrate=N/A speed=15.4x    frame=24580 fps=369 q=-0.0 size=N/A time=00:17:05.19 bitrate=N/A speed=15.4x    frame=24772 fps=369 q=-0.0 size=N/A time=00:17:13.19 bitrate=N/A speed=15.4x    frame=24964 fps=369 q=-0.0 size=N/A time=00:17:21.20 bitrate=N/A speed=15.4x    frame=25167 fps=369 q=-0.0 size=N/A time=00:17:29.67 bitrate=N/A speed=15.4x    frame=25355 fps=369 q=-0.0 size=N/A time=00:17:37.51 bitrate=N/A speed=15.4x    frame=25536 fps=369 q=-0.0 size=N/A time=00:17:45.06 bitrate=N/A speed=15.4x    frame=25721 fps=369 q=-0.0 size=N/A time=00:17:52.78 bitrate=N/A speed=15.4x    frame=25906 fps=369 q=-0.0 size=N/A time=00:18:00.49 bitrate=N/A speed=15.4x    frame=26103 fps=369 q=-0.0 size=N/A time=00:18:08.71 bitrate=N/A speed=15.4x    frame=26293 fps=369 q=-0.0 size=N/A time=00:18:16.63 bitrate=N/A speed=15.4x    frame=26486 fps=369 q=-0.0 size=N/A time=00:18:24.68 bitrate=N/A speed=15.4x    frame=26691 fps=369 q=-0.0 size=N/A time=00:18:33.23 bitrate=N/A speed=15.4x    frame=26876 fps=369 q=-0.0 size=N/A time=00:18:40.95 bitrate=N/A speed=15.4x    frame=27045 fps=369 q=-0.0 size=N/A time=00:18:48.00 bitrate=N/A speed=15.4x    frame=27233 fps=369 q=-0.0 size=N/A time=00:18:55.84 bitrate=N/A speed=15.4x    frame=27424 fps=369 q=-0.0 size=N/A time=00:19:03.80 bitrate=N/A speed=15.4x    frame=27607 fps=369 q=-0.0 size=N/A time=00:19:11.44 bitrate=N/A speed=15.4x    frame=27799 fps=369 q=-0.0 size=N/A time=00:19:19.44 bitrate=N/A speed=15.4x    frame=27989 fps=369 q=-0.0 size=N/A time=00:19:27.37 bitrate=N/A speed=15.4x    frame=28178 fps=369 q=-0.0 size=N/A time=00:19:35.25 bitrate=N/A speed=15.4x    frame=28366 fps=369 q=-0.0 size=N/A time=00:19:43.09 bitrate=N/A speed=15.4x    frame=28541 fps=368 q=-0.0 size=N/A time=00:19:50.39 bitrate=N/A speed=15.4x    frame=28718 fps=368 q=-0.0 size=N/A time=00:19:57.77 bitrate=N/A speed=15.4x    frame=28880 fps=368 q=-0.0 size=N/A time=00:20:04.53 bitrate=N/A speed=15.3x    frame=29040 fps=368 q=-0.0 size=N/A time=00:20:11.21 bitrate=N/A speed=15.3x    frame=29212 fps=367 q=-0.0 size=N/A time=00:20:18.38 bitrate=N/A speed=15.3x    frame=29388 fps=367 q=-0.0 size=N/A time=00:20:25.72 bitrate=N/A speed=15.3x    frame=29548 fps=367 q=-0.0 size=N/A time=00:20:32.39 bitrate=N/A speed=15.3x    frame=29717 fps=367 q=-0.0 size=N/A time=00:20:39.44 bitrate=N/A speed=15.3x    frame=29886 fps=366 q=-0.0 size=N/A time=00:20:46.49 bitrate=N/A speed=15.3x    frame=30038 fps=366 q=-0.0 size=N/A time=00:20:52.83 bitrate=N/A speed=15.3x    frame=30213 fps=366 q=-0.0 size=N/A time=00:21:00.13 bitrate=N/A speed=15.3x    frame=30395 fps=366 q=-0.0 size=N/A time=00:21:07.72 bitrate=N/A speed=15.2x    frame=30592 fps=366 q=-0.0 size=N/A time=00:21:15.94 bitrate=N/A speed=15.3x    frame=30772 fps=366 q=-0.0 size=N/A time=00:21:23.44 bitrate=N/A speed=15.3x    frame=30957 fps=366 q=-0.0 size=N/A time=00:21:31.16 bitrate=N/A speed=15.2x    frame=31152 fps=366 q=-0.0 size=N/A time=00:21:39.29 bitrate=N/A speed=15.3x    frame=31329 fps=366 q=-0.0 size=N/A time=00:21:46.68 bitrate=N/A speed=15.2x    frame=31513 fps=365 q=-0.0 size=N/A time=00:21:54.35 bitrate=N/A speed=15.2x    frame=31697 fps=365 q=-0.0 size=N/A time=00:22:02.02 bitrate=N/A speed=15.2x    frame=31866 fps=365 q=-0.0 size=N/A time=00:22:09.07 bitrate=N/A speed=15.2x    frame=32038 fps=365 q=-0.0 size=N/A time=00:22:16.25 bitrate=N/A speed=15.2x    frame=32225 fps=365 q=-0.0 size=N/A time=00:22:24.05 bitrate=N/A speed=15.2x    frame=32411 fps=365 q=-0.0 size=N/A time=00:22:31.80 bitrate=N/A speed=15.2x    frame=32606 fps=365 q=-0.0 size=N/A time=00:22:39.94 bitrate=N/A speed=15.2x    frame=32746 fps=364 q=-0.0 size=N/A time=00:22:45.78 bitrate=N/A speed=15.2x    frame=32903 fps=364 q=-0.0 size=N/A time=00:22:52.32 bitrate=N/A speed=15.2x    frame=33085 fps=364 q=-0.0 size=N/A time=00:22:59.92 bitrate=N/A speed=15.2x    frame=33270 fps=364 q=-0.0 size=N/A time=00:23:07.63 bitrate=N/A speed=15.2x    frame=33435 fps=364 q=-0.0 size=N/A time=00:23:14.51 bitrate=N/A speed=15.2x    frame=33582 fps=363 q=-0.0 size=N/A time=00:23:20.64 bitrate=N/A speed=15.2x    frame=33732 fps=363 q=-0.0 size=N/A time=00:23:26.90 bitrate=N/A speed=15.1x    frame=33852 fps=362 q=-0.0 size=N/A time=00:23:31.91 bitrate=N/A speed=15.1x    frame=34002 fps=362 q=-0.0 size=N/A time=00:23:38.16 bitrate=N/A speed=15.1x    frame=34158 fps=362 q=-0.0 size=N/A time=00:23:44.67 bitrate=N/A speed=15.1x    frame=34312 fps=361 q=-0.0 size=N/A time=00:23:51.09 bitrate=N/A speed=15.1x    frame=34435 fps=361 q=-0.0 size=N/A time=00:23:56.22 bitrate=N/A speed=  15x    frame=34616 fps=360 q=-0.0 size=N/A time=00:24:03.77 bitrate=N/A speed=  15x    [Parsed_psnr_16 @ 000001e140ce8c00] PSNR y:48.981461 u:50.355264 v:50.399657 average:49.398828 min:37.977607 max:inf
[out#0/null @ 000001e133ba8a00] video:14903KiB audio:271276KiB subtitle:0KiB other streams:0KiB global headers:0KiB muxing overhead: unknown
frame=34683 fps=360 q=-0.0 Lsize=N/A time=00:24:06.57 bitrate=N/A speed=  15x    
